<svg version="1.1" id="Layer_1" xmlns="http://www.w3.org/2000/svg" xmlns:xlink="http://www.w3.org/1999/xlink" x="0px" y="0px"
	 width="100%" viewBox="0 0 3000 3000" enable-background="new 0 0 3000 3000" xml:space="preserve">
<path fill="#8DBCE2" opacity="1.000000" stroke="none" 
	d="
M3002.000000,718.000000 
	C3002.000000,1479.936646 3002.000000,2240.873291 3002.000000,3001.905029 
	C2002.146484,3001.905029 1002.292847,3001.905029 2.219637,3001.905029 
	C2.219637,2002.229614 2.219637,1002.459167 2.219637,2.344360 
	C1001.999878,2.344360 2002.000000,2.344360 3002.000000,2.344360 
	C3002.000000,240.374496 3002.000000,478.687256 3002.000000,718.000000 
M1695.000000,2906.239990 
	C2099.973145,2906.174316 2504.946289,2906.108643 2909.919434,2906.022461 
	C2910.563721,2906.022217 2911.220215,2905.752197 2911.847168,2905.539307 
	C2912.140869,2905.439697 2912.392822,2905.191895 2912.637939,2904.981689 
	C2912.890381,2904.765381 2913.112061,2904.513672 2913.349854,2904.280029 
	C2915.301270,2890.744873 2914.586426,94.228310 2912.584717,86.841896 
	C2911.751221,86.565544 2910.828369,85.991188 2909.905273,85.991089 
	C1974.626709,85.885925 1039.348267,85.818474 104.069748,85.780540 
	C101.428406,85.780434 98.785530,86.200195 96.147911,86.468445 
	C95.868805,86.496834 95.607147,86.812218 95.361526,87.022629 
	C95.109146,87.238831 94.886383,87.489624 94.650818,87.725433 
	C92.700096,101.264374 93.412941,2897.784424 95.706001,2906.240479 
	C627.911987,2906.240479 1160.456055,2906.240479 1695.000000,2906.239990 
z"/>
<path fill="#FEFEFF" opacity="1.000000" stroke="none" 
	d="
M1694.000000,2906.240234 
	C1160.456055,2906.240479 627.911987,2906.240479 95.706001,2906.240479 
	C93.412941,2897.784424 92.700096,101.264374 94.650742,87.725357 
	C94.886383,87.489624 95.109146,87.238831 95.361526,87.022629 
	C95.607147,86.812218 95.868805,86.496834 96.147911,86.468445 
	C98.785530,86.200195 101.428406,85.780434 104.069748,85.780540 
	C1039.348267,85.818474 1974.626709,85.885925 2909.905273,85.991089 
	C2910.828369,85.991188 2911.751221,86.565544 2912.584717,86.841896 
	C2914.586426,94.228310 2915.301270,2890.744873 2913.348633,2904.278809 
	C2913.112061,2904.513672 2912.890381,2904.765381 2912.637939,2904.981689 
	C2912.392822,2905.191895 2912.140869,2905.439697 2911.847168,2905.539307 
	C2911.220215,2905.752197 2910.563721,2906.022217 2909.919434,2906.022461 
	C2504.946289,2906.108643 2099.973145,2906.174316 1694.000000,2906.240234 
M1623.000000,2830.446289 
	C2026.306519,2830.405762 2429.613037,2830.365723 2832.919678,2830.299072 
	C2833.892578,2830.298828 2834.872070,2829.936768 2835.833984,2829.688232 
	C2836.131592,2829.611328 2836.398438,2829.370361 2836.647705,2829.166260 
	C2836.904297,2828.956055 2837.122803,2828.699463 2838.457031,2827.358398 
	C2838.457031,2823.211182 2838.457031,2817.936523 2838.457031,2812.661621 
	C2838.457031,1935.049072 2838.456787,1057.436523 2838.456055,179.824005 
	C2838.456055,176.490891 2838.607422,173.147171 2838.388672,169.828140 
	C2838.222412,167.307938 2837.579346,164.819138 2837.196777,162.597504 
	C2822.907227,160.509827 178.263596,161.221756 170.986633,163.181305 
	C170.675171,163.750717 170.207901,164.288452 170.084427,164.896072 
	C169.821075,166.192078 169.597473,167.524307 169.597443,168.841705 
	C169.572067,1053.453613 169.566177,1938.065552 169.587662,2822.677490 
	C169.587692,2824.319580 169.979126,2825.963867 170.226028,2827.601318 
	C170.272247,2827.907715 170.468140,2828.210449 170.656158,2828.470703 
	C170.848999,2828.737793 171.116531,2828.950684 172.603043,2830.447510 
	C654.568970,2830.447510 1137.784424,2830.447510 1623.000000,2830.446289 
z"/>
<path fill="#8CBCE2" opacity="1.000000" stroke="none" 
	d="
M1622.000000,2830.446777 
	C1137.784424,2830.447510 654.568970,2830.447510 172.603043,2830.447510 
	C171.116531,2828.950684 170.848999,2828.737793 170.656158,2828.470703 
	C170.468140,2828.210449 170.272247,2827.907715 170.226028,2827.601318 
	C169.979126,2825.963867 169.587692,2824.319580 169.587662,2822.677490 
	C169.566177,1938.065552 169.572067,1053.453613 169.597443,168.841705 
	C169.597473,167.524307 169.821075,166.192078 170.084427,164.896072 
	C170.207901,164.288452 170.675171,163.750717 170.987442,163.181747 
	C178.263596,161.221756 2822.907227,160.509827 2837.196777,162.597504 
	C2837.579346,164.819138 2838.222412,167.307938 2838.388672,169.828140 
	C2838.607422,173.147171 2838.456055,176.490891 2838.456055,179.824005 
	C2838.456787,1057.436523 2838.457031,1935.049072 2838.457031,2812.661621 
	C2838.457031,2817.936523 2838.457031,2823.211182 2838.457031,2827.358398 
	C2837.122803,2828.699463 2836.904297,2828.956055 2836.647705,2829.166260 
	C2836.398438,2829.370361 2836.131592,2829.611328 2835.833984,2829.688232 
	C2834.872070,2829.936768 2833.892578,2830.298828 2832.919678,2830.299072 
	C2429.613037,2830.365723 2026.306519,2830.405762 1622.000000,2830.446777 
M1747.581421,692.008179 
	C1750.751587,691.057617 1754.024292,690.359009 1757.076294,689.117737 
	C1787.494995,676.746033 1815.256592,659.689331 1841.875977,640.667664 
	C1872.008057,619.135803 1899.829102,594.835571 1926.642822,569.359253 
	C1933.816528,562.543335 1940.632690,555.351257 1948.502686,547.437195 
	C1927.422974,531.500427 1907.438965,516.392090 1887.679199,501.453247 
	C1864.879395,535.057739 1843.336426,567.836792 1820.719604,599.857300 
	C1797.883301,632.188477 1774.680176,664.333923 1745.538696,692.228821 
	C1745.290283,692.475525 1745.041870,692.722229 1744.793457,692.968933 
	C1745.201416,692.637451 1745.609375,692.305969 1747.581421,692.008179 
M2196.667480,1587.603882 
	C2198.682373,1575.123535 2201.378418,1562.708496 2202.583496,1550.150513 
	C2206.085938,1513.651855 2203.810059,1477.529175 2192.247314,1442.498047 
	C2177.047852,1396.447632 2146.707764,1365.722656 2099.274902,1353.105591 
	C2082.473145,1348.635986 2065.275879,1346.468140 2047.880859,1346.429810 
	C2005.218628,1346.335693 1962.555908,1346.388794 1919.893433,1346.393433 
	C1904.129883,1346.395142 1904.526489,1345.175903 1904.528076,1361.516968 
	C1904.541748,1505.836304 1904.535645,1650.155518 1904.535645,1794.474854 
	C1904.535645,1834.137695 1904.515015,1873.800415 1904.551025,1913.463257 
	C1904.561646,1925.179199 1904.645996,1925.261230 1916.190674,1925.276367 
	C1947.520996,1925.317627 1978.851318,1925.324219 2010.181396,1925.247925 
	C2013.695923,1925.239380 2017.208862,1924.611328 2021.887695,1924.157593 
	C2021.887695,1847.342041 2021.887695,1771.522217 2021.887695,1695.950562 
	C2032.423340,1694.029175 2032.715820,1694.052002 2035.631226,1703.369507 
	C2049.759766,1748.525879 2063.783203,1793.715210 2077.857666,1838.888428 
	C2085.886230,1864.656128 2093.903564,1890.427612 2102.005371,1916.172363 
	C2104.747070,1924.884399 2105.077393,1925.066284 2113.765381,1925.275146 
	C2120.761230,1925.443481 2127.760498,1925.573242 2134.757812,1925.563721 
	C2203.748291,1925.470093 2272.738525,1925.280762 2341.729004,1925.241821 
	C2443.385742,1925.184448 2545.042480,1925.237427 2646.699219,1925.195435 
	C2651.248779,1925.193481 2655.798340,1924.716553 2660.053955,1924.477295 
	C2662.421143,1913.993164 2662.155762,1854.778564 2659.601807,1846.072754 
	C2655.694336,1846.072754 2651.439209,1846.072754 2647.183838,1846.072754 
	C2502.531250,1846.072998 2357.878662,1846.077026 2213.226074,1846.065918 
	C2202.071533,1846.065063 2202.034180,1846.028320 2198.490723,1835.603882 
	C2188.732422,1806.896362 2179.022217,1778.172241 2169.266113,1749.463989 
	C2161.010986,1725.172974 2152.726562,1700.891846 2144.437744,1676.612427 
	C2141.571289,1668.216431 2141.556641,1668.236572 2148.665527,1662.369629 
	C2152.003418,1659.614868 2155.417969,1656.936523 2158.588379,1653.997681 
	C2177.744629,1636.239746 2189.482910,1614.155151 2196.667480,1587.603882 
M1148.999756,1346.395020 
	C1137.000610,1346.394775 1125.001465,1346.357666 1113.002441,1346.404785 
	C1101.134888,1346.451538 1089.267700,1346.583008 1076.331299,1346.685791 
	C1076.331299,1423.171021 1076.331299,1498.247437 1076.331299,1573.323853 
	C1075.615234,1573.474487 1074.899292,1573.625122 1074.183228,1573.775757 
	C1072.539551,1569.595337 1070.781616,1565.455811 1069.269165,1561.228394 
	C1044.800049,1492.832764 1020.360657,1424.426270 995.918335,1356.020996 
	C992.518250,1346.505493 992.527222,1346.423340 982.447571,1346.408813 
	C953.450378,1346.367188 924.453125,1346.394775 895.455872,1346.398438 
	C894.122925,1346.398682 892.787903,1346.486450 891.457336,1346.437866 
	C886.271912,1346.248657 884.277039,1349.007568 884.463684,1353.870850 
	C884.514771,1355.201660 884.442444,1356.536743 884.442444,1357.869873 
	C884.441956,1543.185547 884.437012,1728.501099 884.458191,1913.816772 
	C884.459473,1925.193726 884.560974,1925.261963 896.457764,1925.276123 
	C927.454834,1925.312866 958.451843,1925.312256 989.448914,1925.276855 
	C1001.604980,1925.262939 1001.605896,1925.202759 1001.663086,1912.996216 
	C1001.670898,1911.329712 1001.662292,1909.663208 1001.662354,1907.996704 
	C1001.664185,1841.003052 1001.666077,1774.009521 1001.668030,1707.015869 
	C1001.668152,1703.622559 1001.668152,1700.229370 1001.668152,1696.836060 
	C1004.217285,1698.157715 1004.975159,1699.555542 1005.514404,1701.033203 
	C1013.167969,1722.004517 1020.784607,1742.989136 1028.424683,1763.965454 
	C1046.784546,1814.373291 1065.120117,1864.790039 1083.543213,1915.174927 
	C1087.225220,1925.244751 1087.384277,1925.258057 1097.751709,1925.274292 
	C1124.415894,1925.316284 1151.079956,1925.285278 1177.744141,1925.290161 
	C1194.438477,1925.293335 1193.362061,1926.246948 1193.362183,1909.440796 
	C1193.363281,1727.124878 1193.363037,1544.808960 1193.361816,1362.493042 
	C1193.361816,1359.826660 1193.455688,1357.154541 1193.316284,1354.494995 
	C1192.941772,1347.351685 1192.311035,1346.575439 1184.995483,1346.457275 
	C1173.666016,1346.274048 1162.331787,1346.400757 1148.999756,1346.395020 
M1491.000000,1034.246826 
	C1530.951660,1034.029175 1570.903198,1033.812500 1610.854736,1033.577393 
	C1611.159058,1033.575684 1611.501465,1033.374634 1611.753906,1033.175171 
	C1612.007202,1032.975098 1612.169922,1032.660156 1613.471069,1030.959473 
	C1613.471069,1028.809937 1613.541748,1025.215698 1613.458984,1021.624878 
	C1613.060303,1004.313965 1613.014282,986.983032 1612.091431,969.699341 
	C1611.025024,949.725403 1618.602783,933.647888 1631.599365,919.025574 
	C1645.525635,903.357422 1659.035278,887.261658 1671.854370,870.678162 
	C1701.553101,832.257324 1714.668823,788.825989 1707.231567,740.455688 
	C1698.904541,686.298462 1673.958862,640.983704 1631.040527,606.405823 
	C1596.871460,578.876770 1557.435669,563.676331 1513.767456,560.431702 
	C1478.964844,557.845703 1445.496460,564.519592 1413.338257,578.023254 
	C1323.219116,615.865662 1277.720703,711.033264 1304.696289,804.905884 
	C1317.828369,850.604187 1340.484131,890.808044 1373.133057,925.311035 
	C1379.306763,931.835388 1383.854736,939.162903 1385.457642,947.742798 
	C1387.217529,957.162231 1388.061401,966.827209 1388.410889,976.417725 
	C1388.883789,989.391663 1388.315918,1002.400513 1388.577881,1015.386597 
	C1388.696655,1021.271912 1389.737549,1027.138672 1390.490967,1034.247681 
	C1423.889526,1034.247681 1456.444702,1034.247681 1491.000000,1034.246826 
M1366.163940,1351.750000 
	C1365.585327,1345.010010 1360.350342,1346.466553 1356.333008,1346.453979 
	C1324.001343,1346.352905 1291.669434,1346.372192 1259.337646,1346.440674 
	C1256.489380,1346.446655 1253.642456,1347.066528 1251.078979,1347.367798 
	C1248.991821,1360.910767 1249.617798,1915.604492 1251.564819,1922.854614 
	C1260.385132,1925.055176 1356.648926,1924.926025 1365.673340,1922.457031 
	C1365.857544,1918.855713 1366.227539,1914.955200 1366.230591,1911.054443 
	C1366.270020,1861.390015 1366.834717,1811.715454 1365.956177,1762.066650 
	C1365.630371,1743.657104 1377.211182,1731.731323 1384.458496,1715.325806 
	C1386.296875,1719.373169 1387.373169,1721.385132 1388.150635,1723.506592 
	C1411.426392,1787.022461 1434.682007,1850.545898 1457.914429,1914.077637 
	C1461.626831,1924.229980 1461.569336,1924.324707 1472.023560,1924.335938 
	C1506.688599,1924.372925 1541.353760,1924.370117 1576.018799,1924.318726 
	C1578.816895,1924.314575 1581.614380,1923.824829 1585.268677,1923.479980 
	C1583.838135,1919.202637 1582.914551,1916.063599 1581.748779,1913.017212 
	C1574.722778,1894.654907 1567.660645,1876.306274 1560.575195,1857.966919 
	C1526.469360,1769.688232 1492.415771,1681.389404 1458.119507,1593.184814 
	C1455.350464,1586.063232 1455.526733,1580.111328 1458.920166,1573.248779 
	C1477.533203,1535.608887 1495.758667,1497.777710 1514.132935,1460.019653 
	C1530.902954,1425.558838 1547.707642,1391.114990 1564.445435,1356.638672 
	C1565.794312,1353.860474 1566.745239,1350.889160 1568.274902,1347.008301 
	C1563.676758,1346.739014 1560.738525,1346.420410 1557.800049,1346.417236 
	C1524.468262,1346.381836 1491.134521,1346.587891 1457.806152,1346.245972 
	C1450.353394,1346.169434 1446.749023,1348.835571 1443.689209,1355.618286 
	C1420.257202,1407.560913 1396.384155,1459.304443 1372.606567,1511.090698 
	C1371.440918,1513.629517 1369.886230,1515.989746 1368.512695,1518.433105 
	C1367.752930,1518.276001 1366.993042,1518.118896 1366.233276,1517.961792 
	C1366.233276,1463.177979 1366.233276,1408.394287 1366.163940,1351.750000 
M1661.000000,1346.390259 
	C1640.493530,1346.767578 1619.942749,1345.577881 1599.061035,1347.119507 
	C1599.061035,1539.920288 1599.061035,1731.711670 1599.061035,1924.276855 
	C1602.550415,1924.658691 1605.437988,1925.249023 1608.325806,1925.250854 
	C1691.314819,1925.301025 1774.303833,1925.312988 1857.292847,1925.264771 
	C1867.088379,1925.259033 1867.649414,1924.683594 1867.670288,1915.187988 
	C1867.742065,1882.525757 1867.723755,1849.863281 1867.655518,1817.201050 
	C1867.649658,1814.364258 1867.026611,1811.528931 1866.596069,1807.898560 
	C1861.677368,1807.898560 1857.720703,1807.898682 1853.763916,1807.898682 
	C1811.102905,1807.898438 1768.441772,1807.927856 1725.780762,1807.876099 
	C1715.729736,1807.863892 1715.306396,1807.496704 1715.284790,1798.019653 
	C1715.209229,1765.024292 1715.230591,1732.028442 1715.311646,1699.033081 
	C1715.318604,1696.204346 1716.038696,1693.377441 1716.549561,1689.662476 
	C1739.063110,1689.662476 1760.673340,1689.756836 1782.282593,1689.635742 
	C1803.791748,1689.515259 1825.328125,1690.181274 1846.530762,1689.242554 
	C1849.046631,1675.022095 1848.279053,1585.419556 1845.599487,1577.970337 
	C1802.739502,1576.977173 1759.567261,1578.448242 1716.775391,1577.200684 
	C1714.047241,1563.826904 1714.814087,1467.484741 1717.826294,1459.537720 
	C1721.324341,1459.537720 1725.263428,1459.537720 1729.202393,1459.537720 
	C1771.196777,1459.537964 1813.191284,1459.557373 1855.185669,1459.506104 
	C1859.040527,1459.501465 1862.894775,1459.045532 1866.479126,1458.816406 
	C1868.822754,1444.861938 1868.089966,1354.202881 1865.416016,1346.391357 
	C1798.189209,1346.391357 1730.594604,1346.391357 1661.000000,1346.390259 
M685.437561,1442.737305 
	C685.437317,1414.752197 685.476685,1386.766968 685.390747,1358.782104 
	C685.379028,1354.954468 684.743530,1351.128662 684.314209,1346.389160 
	C679.606506,1346.389160 675.991516,1346.389160 672.376526,1346.389160 
	C582.757629,1346.389771 493.138702,1346.384888 403.519775,1346.397095 
	C390.464630,1346.398804 390.435120,1346.436646 390.426819,1359.773438 
	C390.408386,1389.424316 390.383270,1419.075195 390.444550,1448.725952 
	C390.466034,1459.132935 390.819641,1459.482544 401.051544,1459.514404 
	C423.372772,1459.583740 445.694458,1459.506226 468.015717,1459.568970 
	C471.555267,1459.578979 475.093628,1460.006958 479.363251,1460.290039 
	C479.578033,1465.088745 479.903320,1468.998047 479.905457,1472.907593 
	C479.937805,1532.209351 479.927856,1591.510986 479.927795,1650.812744 
	C479.927734,1737.766479 479.917450,1824.720093 479.958832,1911.673828 
	C479.960815,1915.853027 480.417603,1920.031982 480.644012,1923.894287 
	C492.525604,1926.156738 587.741577,1925.713867 596.168030,1923.263184 
	C596.168030,1919.320068 596.168091,1915.043579 596.168091,1910.766968 
	C596.167786,1765.177856 596.160767,1619.588867 596.198303,1473.999756 
	C596.199463,1469.489868 596.661377,1464.980103 596.959534,1459.538330 
	C601.715637,1459.538330 605.331299,1459.538330 608.947021,1459.538330 
	C629.602661,1459.537964 650.258362,1459.517822 670.914001,1459.543823 
	C686.062256,1459.562988 685.499023,1460.296387 685.437561,1442.737305 
M825.789001,1485.000000 
	C825.728271,1440.352051 825.669556,1395.704224 825.587097,1351.056274 
	C825.585876,1350.414185 825.309631,1349.765869 825.118896,1349.133423 
	C825.025818,1348.824951 824.869934,1348.519287 824.676514,1348.261963 
	C824.479248,1347.999512 824.200989,1347.797974 822.694885,1346.382202 
	C820.378967,1346.382202 816.793030,1346.382202 813.207153,1346.382202 
	C783.218140,1346.382202 753.229126,1346.376709 723.240112,1346.384277 
	C708.573364,1346.388062 708.557739,1346.399048 708.557434,1361.190063 
	C708.553711,1544.456177 708.554199,1727.722412 708.561646,1910.988525 
	C708.561768,1913.985718 708.575684,1916.987549 708.739441,1919.978638 
	C708.908569,1923.067017 710.565857,1924.922241 713.746033,1925.093384 
	C716.404846,1925.236572 719.071228,1925.294678 721.734253,1925.295898 
	C751.390076,1925.309326 781.045959,1925.250122 810.701599,1925.325684 
	C827.403320,1925.368164 825.778442,1925.039917 825.780090,1909.844971 
	C825.795288,1768.896606 825.788696,1627.948364 825.789001,1485.000000 
M2626.993896,1354.679810 
	C2557.824463,1354.679810 2488.654785,1354.679810 2418.977051,1354.679810 
	C2418.977051,1379.490112 2418.977051,1402.908691 2418.977051,1427.653809 
	C2444.094482,1427.653809 2468.546631,1427.653809 2494.316162,1427.653809 
	C2494.316162,1455.168335 2494.316162,1481.372559 2494.316162,1507.576782 
	C2494.316162,1534.222534 2494.316162,1560.868286 2494.316162,1587.514038 
	C2494.316162,1613.826660 2494.311035,1640.139404 2494.317383,1666.452026 
	C2494.323730,1692.958008 2494.341309,1719.464111 2494.353516,1745.656738 
	C2507.253906,1748.140259 2576.048096,1747.578369 2584.006836,1744.867554 
	C2584.006836,1639.799683 2584.006836,1534.364014 2584.006836,1428.170166 
	C2609.687012,1426.653442 2634.493896,1428.663086 2659.238770,1427.006836 
	C2659.238770,1402.452148 2659.238770,1379.272461 2659.238770,1354.680908 
	C2648.765625,1354.680908 2638.877197,1354.680908 2626.993896,1354.679810 
M2368.588623,1625.000488 
	C2368.411133,1535.695557 2368.234375,1446.390625 2368.032471,1357.085693 
	C2368.031982,1356.817749 2367.681885,1356.539551 2367.471436,1356.286011 
	C2367.263184,1356.035278 2367.024658,1355.809937 2366.799316,1355.573364 
	C2353.117676,1353.747314 2287.490723,1354.405151 2280.175781,1356.516968 
	C2280.175781,1486.230225 2280.175781,1616.020386 2280.175781,1745.677612 
	C2293.239014,1748.079102 2361.336426,1747.381714 2368.586426,1744.690796 
	C2368.586426,1705.613647 2368.586426,1666.307129 2368.588623,1625.000488 
M1508.835205,1086.156616 
	C1512.833252,1086.171875 1516.842529,1086.001953 1520.826782,1086.244019 
	C1527.494141,1086.649292 1527.790771,1087.223633 1526.456543,1095.828979 
	C1523.063721,1096.009277 1519.476685,1096.343750 1515.887695,1096.367065 
	C1493.566406,1096.511597 1471.244385,1096.539185 1448.923584,1096.729736 
	C1445.075806,1096.762573 1441.233154,1097.389893 1436.490601,1097.824951 
	C1436.788940,1117.589722 1435.411133,1136.338867 1437.430786,1155.873047 
	C1442.171753,1155.873047 1445.798096,1155.860962 1449.424561,1155.875000 
	C1472.079346,1155.962402 1494.734009,1156.051636 1517.388794,1156.152588 
	C1519.719604,1156.162964 1522.052124,1156.210083 1524.380249,1156.319214 
	C1527.898315,1156.483887 1529.963379,1158.250366 1530.088135,1161.880615 
	C1530.179443,1164.542603 1530.197388,1167.210571 1530.145508,1169.873657 
	C1529.717285,1191.850464 1530.015137,1213.877197 1528.542236,1235.784546 
	C1527.643799,1249.144653 1533.274658,1257.878540 1543.548828,1266.017700 
	C1546.984985,1262.373657 1550.228760,1258.660522 1553.771362,1255.258545 
	C1556.917480,1252.237305 1557.861694,1248.694092 1557.916870,1244.477539 
	C1558.356812,1210.841064 1558.940063,1177.206421 1559.397217,1143.570068 
	C1559.436279,1140.696533 1558.879883,1137.814819 1558.506714,1133.975220 
	C1554.415894,1133.975220 1551.137207,1134.021484 1547.860107,1133.968018 
	C1522.553589,1133.555298 1497.245361,1133.204834 1471.943237,1132.603760 
	C1468.397095,1132.519531 1463.305420,1134.492310 1462.251221,1128.457397 
	C1461.585083,1124.644531 1463.786377,1123.544922 1472.053223,1123.391724 
	C1497.025391,1122.928589 1521.998657,1122.530151 1546.969971,1122.029785 
	C1550.459229,1121.959961 1553.939697,1121.459595 1557.128418,1121.184082 
	C1559.173828,1106.002563 1558.529297,1068.475098 1555.933960,1060.426392 
	C1536.400146,1060.426392 1516.476074,1060.219849 1496.558105,1060.484619 
	C1476.781250,1060.747681 1456.932251,1059.305542 1437.278076,1061.339600 
	C1437.278076,1070.055176 1437.278076,1077.538696 1437.278076,1086.156982 
	C1461.036377,1086.156982 1483.955078,1086.156982 1508.835205,1086.156616 
M1639.417114,548.516357 
	C1640.417358,552.852295 1643.036499,550.127075 1644.632935,549.422363 
	C1657.499390,543.742432 1669.461914,536.596924 1679.905151,527.056763 
	C1716.070190,494.019104 1734.536987,451.484741 1745.399292,404.897980 
	C1745.799438,403.181610 1745.075562,401.203156 1744.808228,398.723999 
	C1724.460815,398.723999 1704.679932,398.723999 1684.429077,398.723999 
	C1683.932129,403.704956 1683.080933,407.969940 1683.155151,412.218689 
	C1683.505981,432.256439 1678.380371,451.231018 1671.324463,469.608765 
	C1661.305176,495.704834 1650.370117,521.449219 1639.417114,548.516357 
M1104.432617,565.137451 
	C1105.713745,571.666443 1106.911987,578.212891 1108.289062,584.721497 
	C1119.660767,638.467712 1147.788818,679.310974 1198.980957,702.371033 
	C1213.235718,708.792236 1227.467896,715.263733 1241.743530,721.638245 
	C1243.691650,722.508057 1245.832520,722.946045 1247.884155,723.583984 
	C1248.496582,722.795288 1249.109131,722.006592 1249.721680,721.217896 
	C1247.738037,720.025574 1245.539062,719.085571 1243.802734,717.603516 
	C1211.684692,690.188354 1183.402100,659.462952 1163.120483,622.099670 
	C1148.193237,594.600159 1137.920898,565.642700 1137.823486,533.822937 
	C1137.818970,532.368469 1137.248169,530.915649 1136.547241,527.598022 
	C1125.424316,538.482483 1115.438477,548.109558 1105.697021,557.977722 
	C1104.533447,559.156494 1104.700317,561.648438 1104.432617,565.137451 
M1483.456543,417.843018 
	C1489.976685,457.662506 1496.496948,497.482025 1503.107544,537.853699 
	C1518.225952,488.081665 1533.128052,439.021973 1548.354614,388.893829 
	C1523.329224,387.247925 1500.017334,391.177856 1477.057373,390.465515 
	C1479.208618,399.645203 1481.146118,407.913208 1483.456543,417.843018 
M1339.678955,499.075348 
	C1339.971313,465.228394 1348.127441,432.741699 1358.269775,399.020294 
	C1341.245850,400.959869 1325.862549,402.712524 1310.572510,404.454529 
	C1309.752808,407.429443 1308.875000,409.295074 1308.766479,411.204437 
	C1306.735718,446.922821 1306.632568,482.521729 1317.354858,517.181824 
	C1323.943848,538.480408 1333.845459,557.925293 1350.687500,573.156128 
	C1352.209473,574.532471 1354.130737,575.467285 1355.895874,576.626343 
	C1351.486328,563.970154 1346.044312,552.119568 1343.389038,539.674377 
	C1340.706665,527.102051 1340.786377,513.940369 1339.678955,499.075348 
z"/>
<path fill="#FEFEFF" opacity="1.000000" stroke="none" 
	d="
M2196.421875,1588.381104 
	C2189.482910,1614.155151 2177.744629,1636.239746 2158.588379,1653.997681 
	C2155.417969,1656.936523 2152.003418,1659.614868 2148.665527,1662.369629 
	C2141.556641,1668.236572 2141.571289,1668.216431 2144.437744,1676.612427 
	C2152.726562,1700.891846 2161.010986,1725.172974 2169.266113,1749.463989 
	C2179.022217,1778.172241 2188.732422,1806.896362 2198.490723,1835.603882 
	C2202.034180,1846.028320 2202.071533,1846.065063 2213.226074,1846.065918 
	C2357.878662,1846.077026 2502.531250,1846.072998 2647.183838,1846.072754 
	C2651.439209,1846.072754 2655.694336,1846.072754 2659.601807,1846.072754 
	C2662.155762,1854.778564 2662.421143,1913.993164 2660.053955,1924.477295 
	C2655.798340,1924.716553 2651.248779,1925.193481 2646.699219,1925.195435 
	C2545.042480,1925.237427 2443.385742,1925.184448 2341.729004,1925.241821 
	C2272.738525,1925.280762 2203.748291,1925.470093 2134.757812,1925.563721 
	C2127.760498,1925.573242 2120.761230,1925.443481 2113.765381,1925.275146 
	C2105.077393,1925.066284 2104.747070,1924.884399 2102.005371,1916.172363 
	C2093.903564,1890.427612 2085.886230,1864.656128 2077.857666,1838.888428 
	C2063.783203,1793.715210 2049.759766,1748.525879 2035.631226,1703.369507 
	C2032.715820,1694.052002 2032.423340,1694.029175 2021.887695,1695.950562 
	C2021.887695,1771.522217 2021.887695,1847.342041 2021.887695,1924.157593 
	C2017.208862,1924.611328 2013.695923,1925.239380 2010.181396,1925.247925 
	C1978.851318,1925.324219 1947.520996,1925.317627 1916.190674,1925.276367 
	C1904.645996,1925.261230 1904.561646,1925.179199 1904.551025,1913.463257 
	C1904.515015,1873.800415 1904.535645,1834.137695 1904.535645,1794.474854 
	C1904.535645,1650.155518 1904.541748,1505.836304 1904.528076,1361.516968 
	C1904.526489,1345.175903 1904.129883,1346.395142 1919.893433,1346.393433 
	C1962.555908,1346.388794 2005.218628,1346.335693 2047.880859,1346.429810 
	C2065.275879,1346.468140 2082.473145,1348.635986 2099.274902,1353.105591 
	C2146.707764,1365.722656 2177.047852,1396.447632 2192.247314,1442.498047 
	C2203.810059,1477.529175 2206.085938,1513.651855 2202.583496,1550.150513 
	C2201.378418,1562.708496 2198.682373,1575.123535 2196.421875,1588.381104 
M2087.262695,1536.084229 
	C2088.522217,1518.370239 2087.121338,1500.811768 2083.798340,1483.418091 
	C2082.099609,1474.527222 2078.073242,1467.110107 2068.960449,1463.550781 
	C2053.868652,1457.656494 2038.428223,1459.505005 2023.192627,1460.257202 
	C2020.749390,1472.015137 2021.229492,1579.201050 2023.772583,1587.134155 
	C2035.098877,1587.768677 2046.641479,1588.073730 2058.211670,1586.299072 
	C2074.050293,1583.869751 2081.072754,1577.503296 2084.004395,1561.647095 
	C2085.452393,1553.815308 2086.017578,1545.820190 2087.262695,1536.084229 
z"/>
<path fill="#FEFEFF" opacity="1.000000" stroke="none" 
	d="
M1149.999634,1346.395508 
	C1162.331787,1346.400757 1173.666016,1346.274048 1184.995483,1346.457275 
	C1192.311035,1346.575439 1192.941772,1347.351685 1193.316284,1354.494995 
	C1193.455688,1357.154541 1193.361816,1359.826660 1193.361816,1362.493042 
	C1193.363037,1544.808960 1193.363281,1727.124878 1193.362183,1909.440796 
	C1193.362061,1926.246948 1194.438477,1925.293335 1177.744141,1925.290161 
	C1151.079956,1925.285278 1124.415894,1925.316284 1097.751709,1925.274292 
	C1087.384277,1925.258057 1087.225220,1925.244751 1083.543213,1915.174927 
	C1065.120117,1864.790039 1046.784546,1814.373291 1028.424683,1763.965454 
	C1020.784607,1742.989136 1013.167969,1722.004517 1005.514404,1701.033203 
	C1004.975159,1699.555542 1004.217285,1698.157715 1001.668152,1696.836060 
	C1001.668152,1700.229370 1001.668152,1703.622559 1001.668030,1707.015869 
	C1001.666077,1774.009521 1001.664185,1841.003052 1001.662354,1907.996704 
	C1001.662292,1909.663208 1001.670898,1911.329712 1001.663086,1912.996216 
	C1001.605896,1925.202759 1001.604980,1925.262939 989.448914,1925.276855 
	C958.451843,1925.312256 927.454834,1925.312866 896.457764,1925.276123 
	C884.560974,1925.261963 884.459473,1925.193726 884.458191,1913.816772 
	C884.437012,1728.501099 884.441956,1543.185547 884.442444,1357.869873 
	C884.442444,1356.536743 884.514771,1355.201660 884.463684,1353.870850 
	C884.277039,1349.007568 886.271912,1346.248657 891.457336,1346.437866 
	C892.787903,1346.486450 894.122925,1346.398682 895.455872,1346.398438 
	C924.453125,1346.394775 953.450378,1346.367188 982.447571,1346.408813 
	C992.527222,1346.423340 992.518250,1346.505493 995.918335,1356.020996 
	C1020.360657,1424.426270 1044.800049,1492.832764 1069.269165,1561.228394 
	C1070.781616,1565.455811 1072.539551,1569.595337 1074.183228,1573.775757 
	C1074.899292,1573.625122 1075.615234,1573.474487 1076.331299,1573.323853 
	C1076.331299,1498.247437 1076.331299,1423.171021 1076.331299,1346.685791 
	C1089.267700,1346.583008 1101.134888,1346.451538 1113.002441,1346.404785 
	C1125.001465,1346.357666 1137.000610,1346.394775 1149.999634,1346.395508 
z"/>
<path fill="#FEFEFF" opacity="1.000000" stroke="none" 
	d="
M1490.000000,1034.247314 
	C1456.444702,1034.247681 1423.889526,1034.247681 1390.490967,1034.247681 
	C1389.737549,1027.138672 1388.696655,1021.271912 1388.577881,1015.386597 
	C1388.315918,1002.400513 1388.883789,989.391663 1388.410889,976.417725 
	C1388.061401,966.827209 1387.217529,957.162231 1385.457642,947.742798 
	C1383.854736,939.162903 1379.306763,931.835388 1373.133057,925.311035 
	C1340.484131,890.808044 1317.828369,850.604187 1304.696289,804.905884 
	C1277.720703,711.033264 1323.219116,615.865662 1413.338257,578.023254 
	C1445.496460,564.519592 1478.964844,557.845703 1513.767456,560.431702 
	C1557.435669,563.676331 1596.871460,578.876770 1631.040527,606.405823 
	C1673.958862,640.983704 1698.904541,686.298462 1707.231567,740.455688 
	C1714.668823,788.825989 1701.553101,832.257324 1671.854370,870.678162 
	C1659.035278,887.261658 1645.525635,903.357422 1631.599365,919.025574 
	C1618.602783,933.647888 1611.025024,949.725403 1612.091431,969.699341 
	C1613.014282,986.983032 1613.060303,1004.313965 1613.458984,1021.624878 
	C1613.541748,1025.215698 1613.471069,1028.809937 1613.471069,1030.959473 
	C1612.169922,1032.660156 1612.007202,1032.975098 1611.753906,1033.175171 
	C1611.501465,1033.374634 1611.159058,1033.575684 1610.854736,1033.577393 
	C1570.903198,1033.812500 1530.951660,1034.029175 1490.000000,1034.247314 
M1523.655396,856.466064 
	C1523.280151,859.768250 1522.366455,863.115784 1522.639893,866.363342 
	C1523.243774,873.537903 1519.741943,878.321167 1514.687622,882.632385 
	C1503.596558,892.092773 1490.516602,895.174011 1476.479126,893.765747 
	C1462.879517,892.401367 1456.483276,884.827148 1456.232178,871.116394 
	C1456.153198,866.811584 1456.786499,862.497498 1456.993652,858.182800 
	C1457.344604,850.873352 1457.782471,843.562256 1457.873901,836.247925 
	C1457.965698,828.910522 1454.962402,822.645752 1450.155762,817.252991 
	C1444.415405,810.812622 1437.231201,809.783203 1430.866455,815.486511 
	C1427.606445,818.407715 1424.963013,822.811829 1423.753296,827.036072 
	C1422.035400,833.034668 1421.583740,839.463867 1421.150513,845.747620 
	C1420.380493,856.918213 1421.570557,867.684509 1429.409058,876.638367 
	C1432.473267,880.138733 1435.161499,883.991455 1438.411133,887.300354 
	C1442.426636,891.388916 1444.267090,895.998779 1443.809326,901.707581 
	C1442.134521,922.596008 1440.881958,943.525085 1438.779053,964.369202 
	C1437.829468,973.780212 1435.254028,983.027222 1433.408691,992.386536 
	C1440.121582,994.283997 1441.896484,994.007629 1443.138306,987.802063 
	C1445.218506,977.406006 1446.349854,966.806458 1447.583130,956.257812 
	C1449.320312,941.396912 1450.246338,926.420959 1452.528076,911.650024 
	C1454.601318,898.227356 1457.625610,896.370544 1470.714355,899.427979 
	C1480.881226,901.802856 1490.475220,900.747009 1500.059570,897.285828 
	C1502.250488,896.494629 1504.448975,895.690308 1506.699219,895.103271 
	C1515.288818,892.862000 1518.141235,894.508240 1520.231079,903.274597 
	C1521.152832,907.140747 1521.514893,911.142395 1522.092773,915.088074 
	C1524.888550,934.173706 1527.279663,953.331848 1530.700195,972.304565 
	C1531.712158,977.917358 1535.181885,983.285583 1538.347900,988.240234 
	C1540.387451,991.432068 1543.789673,994.019043 1549.787354,992.215576 
	C1548.525269,988.884338 1547.130371,986.035828 1546.360229,983.027405 
	C1542.822144,969.207520 1538.080444,955.506226 1536.414307,941.449036 
	C1534.701904,927.002197 1535.979004,912.191589 1536.091553,897.541260 
	C1536.162476,888.317749 1539.304688,880.703674 1547.771851,875.829041 
	C1550.920532,874.016235 1553.803833,871.651733 1556.547974,869.242737 
	C1568.092773,859.107727 1571.838501,846.103577 1569.398926,831.340820 
	C1568.111694,823.551636 1563.146118,818.165710 1555.473267,815.823486 
	C1548.150146,813.588013 1541.402100,815.228760 1536.262817,820.798035 
	C1533.187744,824.130371 1530.283936,828.163940 1528.911377,832.403076 
	C1526.570068,839.634521 1525.494141,847.275696 1523.655396,856.466064 
z"/>
<path fill="#FEFEFF" opacity="1.000000" stroke="none" 
	d="
M1366.198608,1352.680176 
	C1366.233276,1408.394287 1366.233276,1463.177979 1366.233276,1517.961792 
	C1366.993042,1518.118896 1367.752930,1518.276001 1368.512695,1518.433105 
	C1369.886230,1515.989746 1371.440918,1513.629517 1372.606567,1511.090698 
	C1396.384155,1459.304443 1420.257202,1407.560913 1443.689209,1355.618286 
	C1446.749023,1348.835571 1450.353394,1346.169434 1457.806152,1346.245972 
	C1491.134521,1346.587891 1524.468262,1346.381836 1557.800049,1346.417236 
	C1560.738525,1346.420410 1563.676758,1346.739014 1568.274902,1347.008301 
	C1566.745239,1350.889160 1565.794312,1353.860474 1564.445435,1356.638672 
	C1547.707642,1391.114990 1530.902954,1425.558838 1514.132935,1460.019653 
	C1495.758667,1497.777710 1477.533203,1535.608887 1458.920166,1573.248779 
	C1455.526733,1580.111328 1455.350464,1586.063232 1458.119507,1593.184814 
	C1492.415771,1681.389404 1526.469360,1769.688232 1560.575195,1857.966919 
	C1567.660645,1876.306274 1574.722778,1894.654907 1581.748779,1913.017212 
	C1582.914551,1916.063599 1583.838135,1919.202637 1585.268677,1923.479980 
	C1581.614380,1923.824829 1578.816895,1924.314575 1576.018799,1924.318726 
	C1541.353760,1924.370117 1506.688599,1924.372925 1472.023560,1924.335938 
	C1461.569336,1924.324707 1461.626831,1924.229980 1457.914429,1914.077637 
	C1434.682007,1850.545898 1411.426392,1787.022461 1388.150635,1723.506592 
	C1387.373169,1721.385132 1386.296875,1719.373169 1384.458496,1715.325806 
	C1377.211182,1731.731323 1365.630371,1743.657104 1365.956177,1762.066650 
	C1366.834717,1811.715454 1366.270020,1861.390015 1366.230591,1911.054443 
	C1366.227539,1914.955200 1365.857544,1918.855713 1365.673340,1922.457031 
	C1356.648926,1924.926025 1260.385132,1925.055176 1251.564819,1922.854614 
	C1249.617798,1915.604492 1248.991821,1360.910767 1251.078979,1347.367798 
	C1253.642456,1347.066528 1256.489380,1346.446655 1259.337646,1346.440674 
	C1291.669434,1346.372192 1324.001343,1346.352905 1356.333008,1346.453979 
	C1360.350342,1346.466553 1365.585327,1345.010010 1366.198608,1352.680176 
z"/>
<path fill="#FEFEFF" opacity="1.000000" stroke="none" 
	d="
M1662.000000,1346.390869 
	C1730.594604,1346.391357 1798.189209,1346.391357 1865.416016,1346.391357 
	C1868.089966,1354.202881 1868.822754,1444.861938 1866.479126,1458.816406 
	C1862.894775,1459.045532 1859.040527,1459.501465 1855.185669,1459.506104 
	C1813.191284,1459.557373 1771.196777,1459.537964 1729.202393,1459.537720 
	C1725.263428,1459.537720 1721.324341,1459.537720 1717.826294,1459.537720 
	C1714.814087,1467.484741 1714.047241,1563.826904 1716.775391,1577.200684 
	C1759.567261,1578.448242 1802.739502,1576.977173 1845.599487,1577.970337 
	C1848.279053,1585.419556 1849.046631,1675.022095 1846.530762,1689.242554 
	C1825.328125,1690.181274 1803.791748,1689.515259 1782.282593,1689.635742 
	C1760.673340,1689.756836 1739.063110,1689.662476 1716.549561,1689.662476 
	C1716.038696,1693.377441 1715.318604,1696.204346 1715.311646,1699.033081 
	C1715.230591,1732.028442 1715.209229,1765.024292 1715.284790,1798.019653 
	C1715.306396,1807.496704 1715.729736,1807.863892 1725.780762,1807.876099 
	C1768.441772,1807.927856 1811.102905,1807.898438 1853.763916,1807.898682 
	C1857.720703,1807.898682 1861.677368,1807.898560 1866.596069,1807.898560 
	C1867.026611,1811.528931 1867.649658,1814.364258 1867.655518,1817.201050 
	C1867.723755,1849.863281 1867.742065,1882.525757 1867.670288,1915.187988 
	C1867.649414,1924.683594 1867.088379,1925.259033 1857.292847,1925.264771 
	C1774.303833,1925.312988 1691.314819,1925.301025 1608.325806,1925.250854 
	C1605.437988,1925.249023 1602.550415,1924.658691 1599.061035,1924.276855 
	C1599.061035,1731.711670 1599.061035,1539.920288 1599.061035,1347.119507 
	C1619.942749,1345.577881 1640.493530,1346.767578 1662.000000,1346.390869 
z"/>
<path fill="#FEFEFF" opacity="1.000000" stroke="none" 
	d="
M685.436768,1443.694092 
	C685.499023,1460.296387 686.062256,1459.562988 670.914001,1459.543823 
	C650.258362,1459.517822 629.602661,1459.537964 608.947021,1459.538330 
	C605.331299,1459.538330 601.715637,1459.538330 596.959534,1459.538330 
	C596.661377,1464.980103 596.199463,1469.489868 596.198303,1473.999756 
	C596.160767,1619.588867 596.167786,1765.177856 596.168091,1910.766968 
	C596.168091,1915.043579 596.168030,1919.320068 596.168030,1923.263184 
	C587.741577,1925.713867 492.525604,1926.156738 480.644012,1923.894287 
	C480.417603,1920.031982 479.960815,1915.853027 479.958832,1911.673828 
	C479.917450,1824.720093 479.927734,1737.766479 479.927795,1650.812744 
	C479.927856,1591.510986 479.937805,1532.209351 479.905457,1472.907593 
	C479.903320,1468.998047 479.578033,1465.088745 479.363251,1460.290039 
	C475.093628,1460.006958 471.555267,1459.578979 468.015717,1459.568970 
	C445.694458,1459.506226 423.372772,1459.583740 401.051544,1459.514404 
	C390.819641,1459.482544 390.466034,1459.132935 390.444550,1448.725952 
	C390.383270,1419.075195 390.408386,1389.424316 390.426819,1359.773438 
	C390.435120,1346.436646 390.464630,1346.398804 403.519775,1346.397095 
	C493.138702,1346.384888 582.757629,1346.389771 672.376526,1346.389160 
	C675.991516,1346.389160 679.606506,1346.389160 684.314209,1346.389160 
	C684.743530,1351.128662 685.379028,1354.954468 685.390747,1358.782104 
	C685.476685,1386.766968 685.437317,1414.752197 685.436768,1443.694092 
z"/>
<path fill="#FDFEFF" opacity="1.000000" stroke="none" 
	d="
M825.788696,1486.000000 
	C825.788696,1627.948364 825.795288,1768.896606 825.780090,1909.844971 
	C825.778442,1925.039917 827.403320,1925.368164 810.701599,1925.325684 
	C781.045959,1925.250122 751.390076,1925.309326 721.734253,1925.295898 
	C719.071228,1925.294678 716.404846,1925.236572 713.746033,1925.093384 
	C710.565857,1924.922241 708.908569,1923.067017 708.739441,1919.978638 
	C708.575684,1916.987549 708.561768,1913.985718 708.561646,1910.988525 
	C708.554199,1727.722412 708.553711,1544.456177 708.557434,1361.190063 
	C708.557739,1346.399048 708.573364,1346.388062 723.240112,1346.384277 
	C753.229126,1346.376709 783.218140,1346.382202 813.207153,1346.382202 
	C816.793030,1346.382202 820.378967,1346.382202 822.694885,1346.382202 
	C824.200989,1347.797974 824.479248,1347.999512 824.676514,1348.261963 
	C824.869934,1348.519287 825.025818,1348.824951 825.118896,1349.133423 
	C825.309631,1349.765869 825.585876,1350.414185 825.587097,1351.056274 
	C825.669556,1395.704224 825.728271,1440.352051 825.788696,1486.000000 
z"/>
<path fill="#E7CD3A" opacity="1.000000" stroke="none" 
	d="
M2627.991455,1354.680420 
	C2638.877197,1354.680908 2648.765625,1354.680908 2659.238770,1354.680908 
	C2659.238770,1379.272461 2659.238770,1402.452148 2659.238770,1427.006836 
	C2634.493896,1428.663086 2609.687012,1426.653442 2584.006836,1428.170166 
	C2584.006836,1534.364014 2584.006836,1639.799683 2584.006836,1744.867554 
	C2576.048096,1747.578369 2507.253906,1748.140259 2494.353516,1745.656738 
	C2494.341309,1719.464111 2494.323730,1692.958008 2494.317383,1666.452026 
	C2494.311035,1640.139404 2494.316162,1613.826660 2494.316162,1587.514038 
	C2494.316162,1560.868286 2494.316162,1534.222534 2494.316162,1507.576782 
	C2494.316162,1481.372559 2494.316162,1455.168335 2494.316162,1427.653809 
	C2468.546631,1427.653809 2444.094482,1427.653809 2418.977051,1427.653809 
	C2418.977051,1402.908691 2418.977051,1379.490112 2418.977051,1354.679810 
	C2488.654785,1354.679810 2557.824463,1354.679810 2627.991455,1354.680420 
M2517.719727,1613.000000 
	C2517.936035,1649.293945 2518.151123,1685.588013 2518.393066,1721.881836 
	C2518.394775,1722.138550 2518.748535,1722.407471 2518.966064,1722.644531 
	C2519.190674,1722.889282 2519.449707,1723.102173 2519.629150,1723.268799 
	C2532.869629,1723.268799 2546.033936,1723.268799 2560.289551,1723.268799 
	C2560.289551,1696.290649 2560.289551,1670.047363 2560.289551,1643.803955 
	C2560.289551,1617.149048 2560.289551,1590.494019 2560.289551,1563.839111 
	C2560.289551,1537.517334 2560.231934,1511.195435 2560.305664,1484.873779 
	C2560.380127,1458.392212 2559.972168,1431.897217 2560.599609,1404.230347 
	C2586.519287,1404.230347 2611.004883,1404.230347 2635.935059,1404.230347 
	C2635.935059,1394.936035 2635.935059,1386.877808 2635.935059,1378.915161 
	C2634.185059,1378.408325 2633.250977,1377.901855 2632.316162,1377.900635 
	C2571.344238,1377.817017 2510.372070,1377.768433 2449.400146,1377.755127 
	C2447.424072,1377.754639 2445.445068,1378.131226 2443.474854,1378.389282 
	C2443.195801,1378.425903 2442.952637,1378.783447 2442.705811,1379.006836 
	C2442.464111,1379.225708 2442.239258,1379.463013 2441.907715,1379.790405 
	C2441.907715,1387.532227 2441.907715,1395.356812 2441.907715,1404.485596 
	C2454.891846,1404.485596 2467.123291,1404.415771 2479.353516,1404.504883 
	C2491.872314,1404.596069 2504.424805,1404.093750 2517.719482,1404.866943 
	C2517.719482,1474.489502 2517.719482,1542.744751 2517.719727,1613.000000 
z"/>
<path fill="#EACE34" opacity="1.000000" stroke="none" 
	d="
M2368.587402,1626.000488 
	C2368.586426,1666.307129 2368.586426,1705.613647 2368.586426,1744.690796 
	C2361.336426,1747.381714 2293.239014,1748.079102 2280.175781,1745.677612 
	C2280.175781,1616.020386 2280.175781,1486.230225 2280.175781,1356.516968 
	C2287.490723,1354.405151 2353.117676,1353.747314 2366.799316,1355.573364 
	C2367.024658,1355.809937 2367.263184,1356.035278 2367.471436,1356.286011 
	C2367.681885,1356.539551 2368.031982,1356.817749 2368.032471,1357.085693 
	C2368.234375,1446.390625 2368.411133,1535.695557 2368.587402,1626.000488 
M2302.397705,1429.000000 
	C2302.589844,1526.604370 2302.781494,1624.208618 2302.999023,1721.812988 
	C2302.999512,1722.074707 2303.368896,1722.344116 2303.583496,1722.594604 
	C2303.796875,1722.843628 2304.032715,1723.073242 2304.236572,1723.287842 
	C2317.739746,1723.287842 2331.206543,1723.287842 2344.561035,1723.287842 
	C2345.041748,1721.566284 2345.532471,1720.628662 2345.533203,1719.690796 
	C2345.600586,1608.075317 2345.633789,1496.459961 2345.643799,1384.844482 
	C2345.644043,1383.193604 2345.353027,1381.539551 2345.135010,1379.895142 
	C2345.097412,1379.612183 2344.755127,1379.360352 2344.531738,1379.113892 
	C2344.313965,1378.873169 2344.068359,1378.657715 2343.834961,1378.435547 
	C2330.369385,1378.435547 2316.903564,1378.435547 2302.397949,1378.435547 
	C2302.397949,1395.151855 2302.397949,1411.075928 2302.397705,1429.000000 
z"/>
<path fill="#FBFDFE" opacity="1.000000" stroke="none" 
	d="
M1507.854492,1086.156738 
	C1483.955078,1086.156982 1461.036377,1086.156982 1437.278076,1086.156982 
	C1437.278076,1077.538696 1437.278076,1070.055176 1437.278076,1061.339600 
	C1456.932251,1059.305542 1476.781250,1060.747681 1496.558105,1060.484619 
	C1516.476074,1060.219849 1536.400146,1060.426392 1555.933960,1060.426392 
	C1558.529297,1068.475098 1559.173828,1106.002563 1557.128418,1121.184082 
	C1553.939697,1121.459595 1550.459229,1121.959961 1546.969971,1122.029785 
	C1521.998657,1122.530151 1497.025391,1122.928589 1472.053223,1123.391724 
	C1463.786377,1123.544922 1461.585083,1124.644531 1462.251221,1128.457397 
	C1463.305420,1134.492310 1468.397095,1132.519531 1471.943237,1132.603760 
	C1497.245361,1133.204834 1522.553589,1133.555298 1547.860107,1133.968018 
	C1551.137207,1134.021484 1554.415894,1133.975220 1558.506714,1133.975220 
	C1558.879883,1137.814819 1559.436279,1140.696533 1559.397217,1143.570068 
	C1558.940063,1177.206421 1558.356812,1210.841064 1557.916870,1244.477539 
	C1557.861694,1248.694092 1556.917480,1252.237305 1553.771362,1255.258545 
	C1550.228760,1258.660522 1546.984985,1262.373657 1543.548828,1266.017700 
	C1533.274658,1257.878540 1527.643799,1249.144653 1528.542236,1235.784546 
	C1530.015137,1213.877197 1529.717285,1191.850464 1530.145508,1169.873657 
	C1530.197388,1167.210571 1530.179443,1164.542603 1530.088135,1161.880615 
	C1529.963379,1158.250366 1527.898315,1156.483887 1524.380249,1156.319214 
	C1522.052124,1156.210083 1519.719604,1156.162964 1517.388794,1156.152588 
	C1494.734009,1156.051636 1472.079346,1155.962402 1449.424561,1155.875000 
	C1445.798096,1155.860962 1442.171753,1155.873047 1437.430786,1155.873047 
	C1435.411133,1136.338867 1436.788940,1117.589722 1436.490601,1097.824951 
	C1441.233154,1097.389893 1445.075806,1096.762573 1448.923584,1096.729736 
	C1471.244385,1096.539185 1493.566406,1096.511597 1515.887695,1096.367065 
	C1519.476685,1096.343750 1523.063721,1096.009277 1526.456543,1095.828979 
	C1527.790771,1087.223633 1527.494141,1086.649292 1520.826782,1086.244019 
	C1516.842529,1086.001953 1512.833252,1086.171875 1507.854492,1086.156738 
z"/>
<path fill="#FDFEFF" opacity="1.000000" stroke="none" 
	d="
M1746.109131,692.075378 
	C1774.680176,664.333923 1797.883301,632.188477 1820.719604,599.857300 
	C1843.336426,567.836792 1864.879395,535.057739 1887.679199,501.453247 
	C1907.438965,516.392090 1927.422974,531.500427 1948.502686,547.437195 
	C1940.632690,555.351257 1933.816528,562.543335 1926.642822,569.359253 
	C1899.829102,594.835571 1872.008057,619.135803 1841.875977,640.667664 
	C1815.256592,659.689331 1787.494995,676.746033 1757.076294,689.117737 
	C1754.024292,690.359009 1750.751587,691.057617 1746.816162,692.020569 
	C1746.050903,692.032959 1746.109131,692.075378 1746.109131,692.075378 
z"/>
<path fill="#FDFEFF" opacity="1.000000" stroke="none" 
	d="
M1639.621704,547.930115 
	C1650.370117,521.449219 1661.305176,495.704834 1671.324463,469.608765 
	C1678.380371,451.231018 1683.505981,432.256439 1683.155151,412.218689 
	C1683.080933,407.969940 1683.932129,403.704956 1684.429077,398.723999 
	C1704.679932,398.723999 1724.460815,398.723999 1744.808228,398.723999 
	C1745.075562,401.203156 1745.799438,403.181610 1745.399292,404.897980 
	C1734.536987,451.484741 1716.070190,494.019104 1679.905151,527.056763 
	C1669.461914,536.596924 1657.499390,543.742432 1644.632935,549.422363 
	C1643.036499,550.127075 1640.417358,552.852295 1639.621704,547.930115 
z"/>
<path fill="#FBFDFE" opacity="1.000000" stroke="none" 
	d="
M1104.341553,564.334595 
	C1104.700317,561.648438 1104.533447,559.156494 1105.697021,557.977722 
	C1115.438477,548.109558 1125.424316,538.482483 1136.547241,527.598022 
	C1137.248169,530.915649 1137.818970,532.368469 1137.823486,533.822937 
	C1137.920898,565.642700 1148.193237,594.600159 1163.120483,622.099670 
	C1183.402100,659.462952 1211.684692,690.188354 1243.802734,717.603516 
	C1245.539062,719.085571 1247.738037,720.025574 1249.721680,721.217896 
	C1249.109131,722.006592 1248.496582,722.795288 1247.884155,723.583984 
	C1245.832520,722.946045 1243.691650,722.508057 1241.743530,721.638245 
	C1227.467896,715.263733 1213.235718,708.792236 1198.980957,702.371033 
	C1147.788818,679.310974 1119.660767,638.467712 1108.289062,584.721497 
	C1106.911987,578.212891 1105.713745,571.666443 1104.341553,564.334595 
z"/>
<path fill="#FBFDFE" opacity="1.000000" stroke="none" 
	d="
M1483.270020,417.012085 
	C1481.146118,407.913208 1479.208618,399.645203 1477.057373,390.465515 
	C1500.017334,391.177856 1523.329224,387.247925 1548.354614,388.893829 
	C1533.128052,439.021973 1518.225952,488.081665 1503.107544,537.853699 
	C1496.496948,497.482025 1489.976685,457.662506 1483.270020,417.012085 
z"/>
<path fill="#FBFDFE" opacity="1.000000" stroke="none" 
	d="
M1339.667480,500.056091 
	C1340.786377,513.940369 1340.706665,527.102051 1343.389038,539.674377 
	C1346.044312,552.119568 1351.486328,563.970154 1355.895874,576.626343 
	C1354.130737,575.467285 1352.209473,574.532471 1350.687500,573.156128 
	C1333.845459,557.925293 1323.943848,538.480408 1317.354858,517.181824 
	C1306.632568,482.521729 1306.735718,446.922821 1308.766479,411.204437 
	C1308.875000,409.295074 1309.752808,407.429443 1310.572510,404.454529 
	C1325.862549,402.712524 1341.245850,400.959869 1358.269775,399.020294 
	C1348.127441,432.741699 1339.971313,465.228394 1339.667480,500.056091 
z"/>
<path fill="#FDFEFF" opacity="1.000000" stroke="none" 
	d="
M1746.034180,692.003662 
	C1745.609375,692.305969 1745.201416,692.637451 1744.793457,692.968933 
	C1745.041870,692.722229 1745.290283,692.475525 1745.823975,692.152100 
	C1746.109131,692.075378 1746.050903,692.032959 1746.034180,692.003662 
z"/>
<path fill="#8DBCE2" opacity="1.000000" stroke="none" 
	d="
M2087.122559,1536.991699 
	C2086.017578,1545.820190 2085.452393,1553.815308 2084.004395,1561.647095 
	C2081.072754,1577.503296 2074.050293,1583.869751 2058.211670,1586.299072 
	C2046.641479,1588.073730 2035.098877,1587.768677 2023.772583,1587.134155 
	C2021.229492,1579.201050 2020.749390,1472.015137 2023.192627,1460.257202 
	C2038.428223,1459.505005 2053.868652,1457.656494 2068.960449,1463.550781 
	C2078.073242,1467.110107 2082.099609,1474.527222 2083.798340,1483.418091 
	C2087.121338,1500.811768 2088.522217,1518.370239 2087.122559,1536.991699 
z"/>
<path fill="#95C0E5" opacity="1.000000" stroke="none" 
	d="
M1523.770996,855.605408 
	C1525.494141,847.275696 1526.570068,839.634521 1528.911377,832.403076 
	C1530.283936,828.163940 1533.187744,824.130371 1536.262817,820.798035 
	C1541.402100,815.228760 1548.150146,813.588013 1555.473267,815.823486 
	C1563.146118,818.165710 1568.111694,823.551636 1569.398926,831.340820 
	C1571.838501,846.103577 1568.092773,859.107727 1556.547974,869.242737 
	C1553.803833,871.651733 1550.920532,874.016235 1547.771851,875.829041 
	C1539.304688,880.703674 1536.162476,888.317749 1536.091553,897.541260 
	C1535.979004,912.191589 1534.701904,927.002197 1536.414307,941.449036 
	C1538.080444,955.506226 1542.822144,969.207520 1546.360229,983.027405 
	C1547.130371,986.035828 1548.525269,988.884338 1549.787354,992.215576 
	C1543.789673,994.019043 1540.387451,991.432068 1538.347900,988.240234 
	C1535.181885,983.285583 1531.712158,977.917358 1530.700195,972.304565 
	C1527.279663,953.331848 1524.888550,934.173706 1522.092773,915.088074 
	C1521.514893,911.142395 1521.152832,907.140747 1520.231079,903.274597 
	C1518.141235,894.508240 1515.288818,892.862000 1506.699219,895.103271 
	C1504.448975,895.690308 1502.250488,896.494629 1500.059570,897.285828 
	C1490.475220,900.747009 1480.881226,901.802856 1470.714355,899.427979 
	C1457.625610,896.370544 1454.601318,898.227356 1452.528076,911.650024 
	C1450.246338,926.420959 1449.320312,941.396912 1447.583130,956.257812 
	C1446.349854,966.806458 1445.218506,977.406006 1443.138306,987.802063 
	C1441.896484,994.007629 1440.121582,994.283997 1433.408691,992.386536 
	C1435.254028,983.027222 1437.829468,973.780212 1438.779053,964.369202 
	C1440.881958,943.525085 1442.134521,922.596008 1443.809326,901.707581 
	C1444.267090,895.998779 1442.426636,891.388916 1438.411133,887.300354 
	C1435.161499,883.991455 1432.473267,880.138733 1429.409058,876.638367 
	C1421.570557,867.684509 1420.380493,856.918213 1421.150513,845.747620 
	C1421.583740,839.463867 1422.035400,833.034668 1423.753296,827.036072 
	C1424.963013,822.811829 1427.606445,818.407715 1430.866455,815.486511 
	C1437.231201,809.783203 1444.415405,810.812622 1450.155762,817.252991 
	C1454.962402,822.645752 1457.965698,828.910522 1457.873901,836.247925 
	C1457.782471,843.562256 1457.344604,850.873352 1456.993652,858.182800 
	C1456.786499,862.497498 1456.153198,866.811584 1456.232178,871.116394 
	C1456.483276,884.827148 1462.879517,892.401367 1476.479126,893.765747 
	C1490.516602,895.174011 1503.596558,892.092773 1514.687622,882.632385 
	C1519.741943,878.321167 1523.243774,873.537903 1522.639893,866.363342 
	C1522.366455,863.115784 1523.280151,859.768250 1523.770996,855.605408 
M1534.510132,857.081177 
	C1534.301514,861.108337 1535.527222,864.390747 1539.723022,865.565613 
	C1543.925293,866.742310 1548.151001,865.794800 1550.287231,862.073059 
	C1553.703613,856.120422 1556.746582,849.833008 1558.973022,843.352295 
	C1561.118530,837.107422 1559.054565,832.858276 1554.398193,830.787720 
	C1549.842163,828.761780 1545.276978,830.240356 1542.227783,836.215759 
	C1539.105469,842.334534 1537.175415,849.061584 1534.510132,857.081177 
M1449.422974,847.651489 
	C1448.513916,843.786682 1448.195557,839.631470 1446.488403,836.158936 
	C1445.347412,833.837769 1442.174072,830.996460 1440.013794,831.079529 
	C1437.305786,831.183716 1433.427734,833.434265 1432.286255,835.824219 
	C1428.257202,844.259705 1428.489502,853.213074 1432.165405,861.823242 
	C1433.796875,865.644897 1437.425415,866.569092 1441.370239,866.294861 
	C1445.279175,866.023193 1447.463745,863.622803 1448.200806,860.121643 
	C1448.945435,856.583923 1449.099365,852.921814 1449.422974,847.651489 
z"/>
<path fill="#8DBCE2" opacity="1.000000" stroke="none" 
	d="
M2517.719727,1612.000000 
	C2517.719482,1542.744751 2517.719482,1474.489502 2517.719482,1404.866943 
	C2504.424805,1404.093750 2491.872314,1404.596069 2479.353516,1404.504883 
	C2467.123291,1404.415771 2454.891846,1404.485596 2441.907715,1404.485596 
	C2441.907715,1395.356812 2441.907715,1387.532227 2441.907715,1379.790405 
	C2442.239258,1379.463013 2442.464111,1379.225708 2442.705811,1379.006836 
	C2442.952637,1378.783447 2443.195801,1378.425903 2443.474854,1378.389282 
	C2445.445068,1378.131226 2447.424072,1377.754639 2449.400146,1377.755127 
	C2510.372070,1377.768433 2571.344238,1377.817017 2632.316162,1377.900635 
	C2633.250977,1377.901855 2634.185059,1378.408325 2635.935059,1378.915161 
	C2635.935059,1386.877808 2635.935059,1394.936035 2635.935059,1404.230347 
	C2611.004883,1404.230347 2586.519287,1404.230347 2560.599609,1404.230347 
	C2559.972168,1431.897217 2560.380127,1458.392212 2560.305664,1484.873779 
	C2560.231934,1511.195435 2560.289551,1537.517334 2560.289551,1563.839111 
	C2560.289551,1590.494019 2560.289551,1617.149048 2560.289551,1643.803955 
	C2560.289551,1670.047363 2560.289551,1696.290649 2560.289551,1723.268799 
	C2546.033936,1723.268799 2532.869629,1723.268799 2519.629150,1723.268799 
	C2519.449707,1723.102173 2519.190674,1722.889282 2518.966064,1722.644531 
	C2518.748535,1722.407471 2518.394775,1722.138550 2518.393066,1721.881836 
	C2518.151123,1685.588013 2517.936035,1649.293945 2517.719727,1612.000000 
z"/>
<path fill="#8FBDDD" opacity="1.000000" stroke="none" 
	d="
M2302.397949,1428.000000 
	C2302.397949,1411.075928 2302.397949,1395.151855 2302.397949,1378.435547 
	C2316.903564,1378.435547 2330.369385,1378.435547 2343.834961,1378.433350 
	C2344.068359,1378.657715 2344.313965,1378.873169 2344.531738,1379.113892 
	C2344.755127,1379.360352 2345.097412,1379.612183 2345.135010,1379.895142 
	C2345.353027,1381.539551 2345.644043,1383.193604 2345.643799,1384.844482 
	C2345.633789,1496.459961 2345.600586,1608.075317 2345.533203,1719.690796 
	C2345.532471,1720.628662 2345.041748,1721.566284 2344.561035,1723.287842 
	C2331.206543,1723.287842 2317.739746,1723.287842 2304.236572,1723.287842 
	C2304.032715,1723.073242 2303.796875,1722.843628 2303.583496,1722.594604 
	C2303.368896,1722.344116 2302.999512,1722.074707 2302.999023,1721.812988 
	C2302.781494,1624.208618 2302.589844,1526.604370 2302.397949,1428.000000 
z"/>
<path fill="#FBFDFE" opacity="1.000000" stroke="none" 
	d="
M1534.616699,856.301758 
	C1537.175415,849.061584 1539.105469,842.334534 1542.227783,836.215759 
	C1545.276978,830.240356 1549.842163,828.761780 1554.398193,830.787720 
	C1559.054565,832.858276 1561.118530,837.107422 1558.973022,843.352295 
	C1556.746582,849.833008 1553.703613,856.120422 1550.287231,862.073059 
	C1548.151001,865.794800 1543.925293,866.742310 1539.723022,865.565613 
	C1535.527222,864.390747 1534.301514,861.108337 1534.616699,856.301758 
z"/>
<path fill="#FBFDFE" opacity="1.000000" stroke="none" 
	d="
M1449.467529,848.482849 
	C1449.099365,852.921814 1448.945435,856.583923 1448.200806,860.121643 
	C1447.463745,863.622803 1445.279175,866.023193 1441.370239,866.294861 
	C1437.425415,866.569092 1433.796875,865.644897 1432.165405,861.823242 
	C1428.489502,853.213074 1428.257202,844.259705 1432.286255,835.824219 
	C1433.427734,833.434265 1437.305786,831.183716 1440.013794,831.079529 
	C1442.174072,830.996460 1445.347412,833.837769 1446.488403,836.158936 
	C1448.195557,839.631470 1448.513916,843.786682 1449.467529,848.482849 
z"/>
</svg>